STARTFONT 2.1
FONT -JDECW-Gothic-Medium-R-Normal--10-100-75-75-M-50-ISO8859-1
SIZE 10 75 75
FONTBOUNDINGBOX 6 12 0 -2

STARTPROPERTIES 26
FONTNAME_REGISTRY ""
FAMILY_NAME "Gothic"
FOUNDRY "JDECW"
WEIGHT_NAME "Medium"
SLANT "R"
SETWIDTH_NAME "Normal"
ADD_STYLE_NAME ""
PIXEL_SIZE 10
POINT_SIZE 100
RESOLUTION_X 75
RESOLUTION_Y 75
SPACING "M"
AVERAGE_WIDTH 50
CHARSET_REGISTRY "ISO8859"
CHARSET_ENCODING "1"
DEVICE_FONT_NAME "Gothic-ISO8859-1"
CHARSET_COLLECTIONS "ISO8859 1"
FULL_NAME "Gothic-ISO8859-1"
COPYRIGHT "Copyright (c) 1990 1991 TYPEBANK, Digital Equipment Corporation Japan"
CAP_HEIGHT 9
X_HEIGHT 6
WEIGHT 10
QUAD_WIDTH 6
DEFAULT_CHAR 32
FONT_DESCENT 2
FONT_ASCENT 10
ENDPROPERTIES

CHARS 191

STARTCHAR C20
ENCODING 32
SWIDTH 1000 0
DWIDTH 6 0
BBX 6 12 0 -2
BITMAP
00
00
00
00
00
00
00
00
00
00
00
00
ENDCHAR

STARTCHAR C21
ENCODING 33
SWIDTH 1000 0
DWIDTH 6 0
BBX 6 12 0 -2
BITMAP
00
E0
E0
E0
E0
E0
40
00
40
E0
40
00
ENDCHAR

STARTCHAR C22
ENCODING 34
SWIDTH 1000 0
DWIDTH 6 0
BBX 6 12 0 -2
BITMAP
00
B0
90
A0
00
00
00
00
00
00
00
00
ENDCHAR

STARTCHAR C23
ENCODING 35
SWIDTH 1000 0
DWIDTH 6 0
BBX 6 12 0 -2
BITMAP
00
50
50
F8
50
50
50
F8
50
50
00
00
ENDCHAR

STARTCHAR C24
ENCODING 36
SWIDTH 1000 0
DWIDTH 6 0
BBX 6 12 0 -2
BITMAP
00
40
60
D0
C0
40
60
50
D0
60
40
00
ENDCHAR

STARTCHAR C25
ENCODING 37
SWIDTH 1000 0
DWIDTH 6 0
BBX 6 12 0 -2
BITMAP
00
48
A8
B0
60
20
20
30
68
A8
90
00
ENDCHAR

STARTCHAR C26
ENCODING 38
SWIDTH 1000 0
DWIDTH 6 0
BBX 6 12 0 -2
BITMAP
00
C0
A0
A0
A0
C0
D8
A8
90
E8
00
00
ENDCHAR

STARTCHAR C27
ENCODING 39
SWIDTH 1000 0
DWIDTH 6 0
BBX 6 12 0 -2
BITMAP
00
C0
40
80
00
00
00
00
00
00
00
00
ENDCHAR

STARTCHAR C28
ENCODING 40
SWIDTH 1000 0
DWIDTH 6 0
BBX 6 12 0 -2
BITMAP
00
10
20
40
40
40
40
40
20
20
10
00
ENDCHAR

STARTCHAR C29
ENCODING 41
SWIDTH 1000 0
DWIDTH 6 0
BBX 6 12 0 -2
BITMAP
00
80
40
20
20
20
20
20
40
40
80
00
ENDCHAR

STARTCHAR C2a
ENCODING 42
SWIDTH 1000 0
DWIDTH 6 0
BBX 6 12 0 -2
BITMAP
00
40
40
D0
60
40
60
D0
40
00
00
00
ENDCHAR

STARTCHAR C2b
ENCODING 43
SWIDTH 1000 0
DWIDTH 6 0
BBX 6 12 0 -2
BITMAP
00
00
00
20
20
20
F0
20
20
00
00
00
ENDCHAR

STARTCHAR C2c
ENCODING 44
SWIDTH 1000 0
DWIDTH 6 0
BBX 6 12 0 -2
BITMAP
00
00
00
00
00
00
00
C0
C0
40
80
00
ENDCHAR

STARTCHAR C2d
ENCODING 45
SWIDTH 1000 0
DWIDTH 6 0
BBX 6 12 0 -2
BITMAP
00
00
00
00
00
00
F0
00
00
00
00
00
ENDCHAR

STARTCHAR C2e
ENCODING 46
SWIDTH 1000 0
DWIDTH 6 0
BBX 6 12 0 -2
BITMAP
00
00
00
00
00
00
00
00
C0
C0
00
00
ENDCHAR

STARTCHAR C2f
ENCODING 47
SWIDTH 1000 0
DWIDTH 6 0
BBX 6 12 0 -2
BITMAP
00
08
10
10
20
20
40
80
80
80
80
00
ENDCHAR

STARTCHAR C30
ENCODING 48
SWIDTH 1000 0
DWIDTH 6 0
BBX 6 12 0 -2
BITMAP
00
20
50
50
88
88
88
50
50
20
00
00
ENDCHAR

STARTCHAR C31
ENCODING 49
SWIDTH 1000 0
DWIDTH 6 0
BBX 6 12 0 -2
BITMAP
00
20
E0
20
20
20
20
20
20
F0
00
00
ENDCHAR

STARTCHAR C32
ENCODING 50
SWIDTH 1000 0
DWIDTH 6 0
BBX 6 12 0 -2
BITMAP
00
E0
90
90
90
20
40
80
90
F0
00
00
ENDCHAR

STARTCHAR C33
ENCODING 51
SWIDTH 1000 0
DWIDTH 6 0
BBX 6 12 0 -2
BITMAP
00
60
90
D0
10
20
10
D0
90
60
00
00
ENDCHAR

STARTCHAR C34
ENCODING 52
SWIDTH 1000 0
DWIDTH 6 0
BBX 6 12 0 -2
BITMAP
00
20
20
60
60
A0
F8
20
20
30
00
00
ENDCHAR

STARTCHAR C35
ENCODING 53
SWIDTH 1000 0
DWIDTH 6 0
BBX 6 12 0 -2
BITMAP
00
F0
80
80
80
F0
10
D0
90
60
00
00
ENDCHAR

STARTCHAR C36
ENCODING 54
SWIDTH 1000 0
DWIDTH 6 0
BBX 6 12 0 -2
BITMAP
00
60
90
B0
80
E0
90
90
90
60
00
00
ENDCHAR

STARTCHAR C37
ENCODING 55
SWIDTH 1000 0
DWIDTH 6 0
BBX 6 12 0 -2
BITMAP
00
F0
90
90
20
20
20
20
20
20
00
00
ENDCHAR

STARTCHAR C38
ENCODING 56
SWIDTH 1000 0
DWIDTH 6 0
BBX 6 12 0 -2
BITMAP
00
60
90
90
90
60
90
90
90
60
00
00
ENDCHAR

STARTCHAR C39
ENCODING 57
SWIDTH 1000 0
DWIDTH 6 0
BBX 6 12 0 -2
BITMAP
00
60
90
90
90
F0
10
D0
90
60
00
00
ENDCHAR

STARTCHAR C3a
ENCODING 58
SWIDTH 1000 0
DWIDTH 6 0
BBX 6 12 0 -2
BITMAP
00
00
00
60
60
00
00
60
60
00
00
00
ENDCHAR

STARTCHAR C3b
ENCODING 59
SWIDTH 1000 0
DWIDTH 6 0
BBX 6 12 0 -2
BITMAP
00
00
00
60
60
00
00
60
60
20
40
00
ENDCHAR

STARTCHAR C3c
ENCODING 60
SWIDTH 1000 0
DWIDTH 6 0
BBX 6 12 0 -2
BITMAP
00
18
20
40
80
80
80
40
20
10
08
00
ENDCHAR

STARTCHAR C3d
ENCODING 61
SWIDTH 1000 0
DWIDTH 6 0
BBX 6 12 0 -2
BITMAP
00
00
00
00
F0
00
F0
00
00
00
00
00
ENDCHAR

STARTCHAR C3e
ENCODING 62
SWIDTH 1000 0
DWIDTH 6 0
BBX 6 12 0 -2
BITMAP
00
80
40
20
10
08
10
20
40
80
80
00
ENDCHAR

STARTCHAR C3f
ENCODING 63
SWIDTH 1000 0
DWIDTH 6 0
BBX 6 12 0 -2
BITMAP
00
60
90
D0
10
20
40
00
40
60
40
00
ENDCHAR

STARTCHAR C40
ENCODING 64
SWIDTH 1000 0
DWIDTH 6 0
BBX 6 12 0 -2
BITMAP
00
30
48
98
A8
A8
98
80
48
30
00
00
ENDCHAR

STARTCHAR C41
ENCODING 65
SWIDTH 1000 0
DWIDTH 6 0
BBX 6 12 0 -2
BITMAP
00
40
40
A0
A0
A0
E0
90
90
B0
00
00
ENDCHAR

STARTCHAR C42
ENCODING 66
SWIDTH 1000 0
DWIDTH 6 0
BBX 6 12 0 -2
BITMAP
00
F0
48
48
48
70
48
48
48
F0
00
00
ENDCHAR

STARTCHAR C43
ENCODING 67
SWIDTH 1000 0
DWIDTH 6 0
BBX 6 12 0 -2
BITMAP
00
28
58
88
80
80
88
88
50
20
00
00
ENDCHAR

STARTCHAR C44
ENCODING 68
SWIDTH 1000 0
DWIDTH 6 0
BBX 6 12 0 -2
BITMAP
00
E0
50
48
48
48
48
48
50
E0
00
00
ENDCHAR

STARTCHAR C45
ENCODING 69
SWIDTH 1000 0
DWIDTH 6 0
BBX 6 12 0 -2
BITMAP
00
F8
48
40
50
70
50
40
48
F8
00
00
ENDCHAR

STARTCHAR C46
ENCODING 70
SWIDTH 1000 0
DWIDTH 6 0
BBX 6 12 0 -2
BITMAP
00
F8
48
40
50
70
50
40
40
E0
00
00
ENDCHAR

STARTCHAR C47
ENCODING 71
SWIDTH 1000 0
DWIDTH 6 0
BBX 6 12 0 -2
BITMAP
00
28
58
88
80
80
98
88
58
28
00
00
ENDCHAR

STARTCHAR C48
ENCODING 72
SWIDTH 1000 0
DWIDTH 6 0
BBX 6 12 0 -2
BITMAP
00
D8
50
50
50
70
50
50
50
D8
00
00
ENDCHAR

STARTCHAR C49
ENCODING 73
SWIDTH 1000 0
DWIDTH 6 0
BBX 6 12 0 -2
BITMAP
00
E0
40
40
40
40
40
40
40
E0
00
00
ENDCHAR

STARTCHAR C4a
ENCODING 74
SWIDTH 1000 0
DWIDTH 6 0
BBX 6 12 0 -2
BITMAP
00
38
10
10
10
10
D0
90
90
60
00
00
ENDCHAR

STARTCHAR C4b
ENCODING 75
SWIDTH 1000 0
DWIDTH 6 0
BBX 6 12 0 -2
BITMAP
00
D8
50
60
60
40
60
50
50
D8
00
00
ENDCHAR

STARTCHAR C4c
ENCODING 76
SWIDTH 1000 0
DWIDTH 6 0
BBX 6 12 0 -2
BITMAP
00
E0
40
40
40
40
40
48
48
F8
00
00
ENDCHAR

STARTCHAR C4d
ENCODING 77
SWIDTH 1000 0
DWIDTH 6 0
BBX 6 12 0 -2
BITMAP
00
90
B0
D0
D0
D0
90
90
90
B0
00
00
ENDCHAR

STARTCHAR C4e
ENCODING 78
SWIDTH 1000 0
DWIDTH 6 0
BBX 6 12 0 -2
BITMAP
00
B0
90
90
D0
D0
B0
90
90
90
00
00
ENDCHAR

STARTCHAR C4f
ENCODING 79
SWIDTH 1000 0
DWIDTH 6 0
BBX 6 12 0 -2
BITMAP
00
20
50
88
88
88
88
88
50
20
00
00
ENDCHAR

STARTCHAR C50
ENCODING 80
SWIDTH 1000 0
DWIDTH 6 0
BBX 6 12 0 -2
BITMAP
00
E0
50
48
48
50
60
40
40
C0
00
00
ENDCHAR

STARTCHAR C51
ENCODING 81
SWIDTH 1000 0
DWIDTH 6 0
BBX 6 12 0 -2
BITMAP
00
20
50
88
88
88
A8
D8
50
20
18
00
ENDCHAR

STARTCHAR C52
ENCODING 82
SWIDTH 1000 0
DWIDTH 6 0
BBX 6 12 0 -2
BITMAP
00
E0
50
48
48
50
60
60
50
D8
00
00
ENDCHAR

STARTCHAR C53
ENCODING 83
SWIDTH 1000 0
DWIDTH 6 0
BBX 6 12 0 -2
BITMAP
00
68
98
88
80
60
10
08
88
F8
00
00
ENDCHAR

STARTCHAR C54
ENCODING 84
SWIDTH 1000 0
DWIDTH 6 0
BBX 6 12 0 -2
BITMAP
00
F0
D0
40
40
40
40
40
40
60
00
00
ENDCHAR

STARTCHAR C55
ENCODING 85
SWIDTH 1000 0
DWIDTH 6 0
BBX 6 12 0 -2
BITMAP
00
B0
90
90
90
90
90
90
90
E0
00
00
ENDCHAR

STARTCHAR C56
ENCODING 86
SWIDTH 1000 0
DWIDTH 6 0
BBX 6 12 0 -2
BITMAP
00
B0
90
90
90
A0
A0
A0
40
40
00
00
ENDCHAR

STARTCHAR C57
ENCODING 87
SWIDTH 1000 0
DWIDTH 6 0
BBX 6 12 0 -2
BITMAP
00
B0
90
90
90
D0
D0
D0
A0
A0
00
00
ENDCHAR

STARTCHAR C58
ENCODING 88
SWIDTH 1000 0
DWIDTH 6 0
BBX 6 12 0 -2
BITMAP
00
B0
90
A0
A0
40
A0
A0
90
B0
00
00
ENDCHAR

STARTCHAR C59
ENCODING 89
SWIDTH 1000 0
DWIDTH 6 0
BBX 6 12 0 -2
BITMAP
00
F0
90
90
60
60
40
40
40
60
00
00
ENDCHAR

STARTCHAR C5a
ENCODING 90
SWIDTH 1000 0
DWIDTH 6 0
BBX 6 12 0 -2
BITMAP
00
F0
90
A0
20
40
80
90
90
F0
00
00
ENDCHAR

STARTCHAR C5b
ENCODING 91
SWIDTH 1000 0
DWIDTH 6 0
BBX 6 12 0 -2
BITMAP
00
70
40
40
40
40
40
40
40
40
70
00
ENDCHAR

STARTCHAR C5c
ENCODING 92
SWIDTH 1000 0
DWIDTH 6 0
BBX 6 12 0 -2
BITMAP
00
80
80
80
80
40
20
20
10
10
08
00
ENDCHAR

STARTCHAR C5d
ENCODING 93
SWIDTH 1000 0
DWIDTH 6 0
BBX 6 12 0 -2
BITMAP
00
E0
20
20
20
20
20
20
20
20
E0
00
ENDCHAR

STARTCHAR C5e
ENCODING 94
SWIDTH 1000 0
DWIDTH 6 0
BBX 6 12 0 -2
BITMAP
00
60
90
00
00
00
00
00
00
00
00
00
ENDCHAR

STARTCHAR C5f
ENCODING 95
SWIDTH 1000 0
DWIDTH 6 0
BBX 6 12 0 -2
BITMAP
00
00
00
00
00
00
00
00
00
00
F8
00
ENDCHAR

STARTCHAR C60
ENCODING 96
SWIDTH 1000 0
DWIDTH 6 0
BBX 6 12 0 -2
BITMAP
00
C0
80
40
00
00
00
00
00
00
00
00
ENDCHAR

STARTCHAR C61
ENCODING 97
SWIDTH 1000 0
DWIDTH 6 0
BBX 6 12 0 -2
BITMAP
00
00
00
00
60
90
10
70
90
68
00
00
ENDCHAR

STARTCHAR C62
ENCODING 98
SWIDTH 1000 0
DWIDTH 6 0
BBX 6 12 0 -2
BITMAP
00
C0
40
40
70
48
48
48
48
70
00
00
ENDCHAR

STARTCHAR C63
ENCODING 99
SWIDTH 1000 0
DWIDTH 6 0
BBX 6 12 0 -2
BITMAP
00
00
00
00
60
90
B0
80
90
60
00
00
ENDCHAR

STARTCHAR C64
ENCODING 100
SWIDTH 1000 0
DWIDTH 6 0
BBX 6 12 0 -2
BITMAP
00
30
10
10
70
90
90
90
90
68
00
00
ENDCHAR

STARTCHAR C65
ENCODING 101
SWIDTH 1000 0
DWIDTH 6 0
BBX 6 12 0 -2
BITMAP
00
00
00
00
60
90
F0
80
90
60
00
00
ENDCHAR

STARTCHAR C66
ENCODING 102
SWIDTH 1000 0
DWIDTH 6 0
BBX 6 12 0 -2
BITMAP
00
30
48
40
F0
40
40
40
40
F0
00
00
ENDCHAR

STARTCHAR C67
ENCODING 103
SWIDTH 1000 0
DWIDTH 6 0
BBX 6 12 0 -2
BITMAP
00
00
00
00
68
90
60
40
F0
88
70
00
ENDCHAR

STARTCHAR C68
ENCODING 104
SWIDTH 1000 0
DWIDTH 6 0
BBX 6 12 0 -2
BITMAP
00
80
80
80
E0
90
90
90
90
D8
00
00
ENDCHAR

STARTCHAR C69
ENCODING 105
SWIDTH 1000 0
DWIDTH 6 0
BBX 6 12 0 -2
BITMAP
00
60
00
00
60
20
20
20
20
70
00
00
ENDCHAR

STARTCHAR C6a
ENCODING 106
SWIDTH 1000 0
DWIDTH 6 0
BBX 6 12 0 -2
BITMAP
00
30
00
00
30
10
10
10
D0
90
60
00
ENDCHAR

STARTCHAR C6b
ENCODING 107
SWIDTH 1000 0
DWIDTH 6 0
BBX 6 12 0 -2
BITMAP
00
80
80
80
B8
90
A0
C0
A0
D8
00
00
ENDCHAR

STARTCHAR C6c
ENCODING 108
SWIDTH 1000 0
DWIDTH 6 0
BBX 6 12 0 -2
BITMAP
00
60
20
20
20
20
20
20
20
70
00
00
ENDCHAR

STARTCHAR C6d
ENCODING 109
SWIDTH 1000 0
DWIDTH 6 0
BBX 6 12 0 -2
BITMAP
00
00
00
00
D0
A8
A8
A8
A8
A8
00
00
ENDCHAR

STARTCHAR C6e
ENCODING 110
SWIDTH 1000 0
DWIDTH 6 0
BBX 6 12 0 -2
BITMAP
00
00
00
00
A0
50
50
50
50
D8
00
00
ENDCHAR

STARTCHAR C6f
ENCODING 111
SWIDTH 1000 0
DWIDTH 6 0
BBX 6 12 0 -2
BITMAP
00
00
00
00
60
90
90
90
90
60
00
00
ENDCHAR

STARTCHAR C70
ENCODING 112
SWIDTH 1000 0
DWIDTH 6 0
BBX 6 12 0 -2
BITMAP
00
00
00
00
F0
48
48
70
40
40
E0
00
ENDCHAR

STARTCHAR C71
ENCODING 113
SWIDTH 1000 0
DWIDTH 6 0
BBX 6 12 0 -2
BITMAP
00
00
00
00
70
90
90
70
10
10
38
00
ENDCHAR

STARTCHAR C72
ENCODING 114
SWIDTH 1000 0
DWIDTH 6 0
BBX 6 12 0 -2
BITMAP
00
00
00
00
D8
60
40
40
40
F0
00
00
ENDCHAR

STARTCHAR C73
ENCODING 115
SWIDTH 1000 0
DWIDTH 6 0
BBX 6 12 0 -2
BITMAP
00
00
00
00
70
90
80
60
10
F0
00
00
ENDCHAR

STARTCHAR C74
ENCODING 116
SWIDTH 1000 0
DWIDTH 6 0
BBX 6 12 0 -2
BITMAP
00
40
40
40
F0
40
40
40
48
30
00
00
ENDCHAR

STARTCHAR C75
ENCODING 117
SWIDTH 1000 0
DWIDTH 6 0
BBX 6 12 0 -2
BITMAP
00
00
00
00
D0
50
50
50
50
38
00
00
ENDCHAR

STARTCHAR C76
ENCODING 118
SWIDTH 1000 0
DWIDTH 6 0
BBX 6 12 0 -2
BITMAP
00
00
00
00
B0
90
A0
A0
40
40
00
00
ENDCHAR

STARTCHAR C77
ENCODING 119
SWIDTH 1000 0
DWIDTH 6 0
BBX 6 12 0 -2
BITMAP
00
00
00
00
B0
90
D0
D0
A0
A0
00
00
ENDCHAR

STARTCHAR C78
ENCODING 120
SWIDTH 1000 0
DWIDTH 6 0
BBX 6 12 0 -2
BITMAP
00
00
00
00
B0
90
A0
40
A0
B0
00
00
ENDCHAR

STARTCHAR C79
ENCODING 121
SWIDTH 1000 0
DWIDTH 6 0
BBX 6 12 0 -2
BITMAP
00
00
00
00
98
88
90
50
20
A0
C0
00
ENDCHAR

STARTCHAR C7a
ENCODING 122
SWIDTH 1000 0
DWIDTH 6 0
BBX 6 12 0 -2
BITMAP
00
00
00
00
F0
90
20
40
80
F0
00
00
ENDCHAR

STARTCHAR C7b
ENCODING 123
SWIDTH 1000 0
DWIDTH 6 0
BBX 6 12 0 -2
BITMAP
00
30
40
40
40
80
40
40
40
40
30
00
ENDCHAR

STARTCHAR C7c
ENCODING 124
SWIDTH 1000 0
DWIDTH 6 0
BBX 6 12 0 -2
BITMAP
00
40
40
40
40
40
40
40
40
40
40
00
ENDCHAR

STARTCHAR C7d
ENCODING 125
SWIDTH 1000 0
DWIDTH 6 0
BBX 6 12 0 -2
BITMAP
00
C0
20
20
20
10
20
20
20
20
C0
00
ENDCHAR

STARTCHAR C7e
ENCODING 126
SWIDTH 1000 0
DWIDTH 6 0
BBX 6 12 0 -2
BITMAP
00
70
00
00
00
00
00
00
00
00
00
00
ENDCHAR

STARTCHAR Ca0
ENCODING 160
SWIDTH 1000 0
DWIDTH 6 0
BBX 6 12 0 -2
BITMAP
00
00
00
00
00
00
00
00
00
00
00
00
ENDCHAR

STARTCHAR Ca1
ENCODING 161
SWIDTH 1000 0
DWIDTH 6 0
BBX 6 12 0 -2
BITMAP
00
60
60
00
00
60
60
60
60
60
60
00
ENDCHAR

STARTCHAR Ca2
ENCODING 162
SWIDTH 1000 0
DWIDTH 6 0
BBX 6 12 0 -2
BITMAP
00
00
18
70
98
A0
A0
A0
C8
70
C0
00
ENDCHAR

STARTCHAR Ca3
ENCODING 163
SWIDTH 1000 0
DWIDTH 6 0
BBX 6 12 0 -2
BITMAP
00
60
90
80
40
F0
40
48
C8
B0
00
00
ENDCHAR

STARTCHAR Ca4
ENCODING 164
SWIDTH 1000 0
DWIDTH 6 0
BBX 6 12 0 -2
BITMAP
00
00
88
70
88
88
88
70
88
00
00
00
ENDCHAR

STARTCHAR Ca5
ENCODING 165
SWIDTH 1000 0
DWIDTH 6 0
BBX 6 12 0 -2
BITMAP
00
88
88
50
F8
20
F8
20
20
70
00
00
ENDCHAR

STARTCHAR Ca6
ENCODING 166
SWIDTH 1000 0
DWIDTH 6 0
BBX 6 12 0 -2
BITMAP
00
20
20
20
20
00
20
20
20
20
00
00
ENDCHAR

STARTCHAR Ca7
ENCODING 167
SWIDTH 1000 0
DWIDTH 6 0
BBX 6 12 0 -2
BITMAP
00
70
80
40
F0
88
78
10
08
70
00
00
ENDCHAR

STARTCHAR Ca8
ENCODING 168
SWIDTH 1000 0
DWIDTH 6 0
BBX 6 12 0 -2
BITMAP
00
50
50
00
00
00
00
00
00
00
00
00
ENDCHAR

STARTCHAR Ca9
ENCODING 169
SWIDTH 1000 0
DWIDTH 6 0
BBX 6 12 0 -2
BITMAP
00
70
88
A8
D8
C8
D8
A8
88
70
00
00
ENDCHAR

STARTCHAR Caa
ENCODING 170
SWIDTH 1000 0
DWIDTH 6 0
BBX 6 12 0 -2
BITMAP
00
60
10
70
90
F8
00
F8
00
00
00
00
ENDCHAR

STARTCHAR Cab
ENCODING 171
SWIDTH 1000 0
DWIDTH 6 0
BBX 6 12 0 -2
BITMAP
00
28
28
50
50
A0
50
50
28
28
00
00
ENDCHAR

STARTCHAR Cac
ENCODING 172
SWIDTH 1000 0
DWIDTH 6 0
BBX 6 12 0 -2
BITMAP
00
00
00
00
F8
08
08
00
00
00
00
00
ENDCHAR

STARTCHAR Cad
ENCODING 173
SWIDTH 1000 0
DWIDTH 6 0
BBX 6 12 0 -2
BITMAP
00
00
00
00
00
F0
00
00
00
00
00
00
ENDCHAR

STARTCHAR Cae
ENCODING 174
SWIDTH 1000 0
DWIDTH 6 0
BBX 6 12 0 -2
BITMAP
00
70
88
E8
D8
E8
D8
D8
88
70
00
00
ENDCHAR

STARTCHAR Caf
ENCODING 175
SWIDTH 1000 0
DWIDTH 6 0
BBX 6 12 0 -2
BITMAP
00
F8
00
00
00
00
00
00
00
00
00
00
ENDCHAR

STARTCHAR Cb0
ENCODING 176
SWIDTH 1000 0
DWIDTH 6 0
BBX 6 12 0 -2
BITMAP
00
60
90
90
60
00
00
00
00
00
00
00
ENDCHAR

STARTCHAR Cb1
ENCODING 177
SWIDTH 1000 0
DWIDTH 6 0
BBX 6 12 0 -2
BITMAP
00
00
20
20
F8
20
20
00
F8
00
00
00
ENDCHAR

STARTCHAR Cb2
ENCODING 178
SWIDTH 1000 0
DWIDTH 6 0
BBX 6 12 0 -2
BITMAP
00
60
90
20
40
F0
00
00
00
00
00
00
ENDCHAR

STARTCHAR Cb3
ENCODING 179
SWIDTH 1000 0
DWIDTH 6 0
BBX 6 12 0 -2
BITMAP
00
E0
10
70
10
E0
00
00
00
00
00
00
ENDCHAR

STARTCHAR Cb4
ENCODING 180
SWIDTH 1000 0
DWIDTH 6 0
BBX 6 12 0 -2
BITMAP
00
18
70
00
00
00
00
00
00
00
00
00
ENDCHAR

STARTCHAR Cb5
ENCODING 181
SWIDTH 1000 0
DWIDTH 6 0
BBX 6 12 0 -2
BITMAP
00
00
00
48
48
48
88
90
90
F8
80
00
ENDCHAR

STARTCHAR Cb6
ENCODING 182
SWIDTH 1000 0
DWIDTH 6 0
BBX 6 12 0 -2
BITMAP
00
68
A8
A8
A8
A8
68
28
28
28
00
00
ENDCHAR

STARTCHAR Cb7
ENCODING 183
SWIDTH 1000 0
DWIDTH 6 0
BBX 6 12 0 -2
BITMAP
00
00
00
00
60
60
00
00
00
00
00
00
ENDCHAR

STARTCHAR Cb8
ENCODING 184
SWIDTH 1000 0
DWIDTH 6 0
BBX 6 12 0 -2
BITMAP
00
00
00
00
00
00
00
00
30
18
70
00
ENDCHAR

STARTCHAR Cb9
ENCODING 185
SWIDTH 1000 0
DWIDTH 6 0
BBX 6 12 0 -2
BITMAP
00
40
C0
40
40
E0
00
00
00
00
00
00
ENDCHAR

STARTCHAR Cba
ENCODING 186
SWIDTH 1000 0
DWIDTH 6 0
BBX 6 12 0 -2
BITMAP
00
70
88
88
88
70
00
F8
00
00
00
00
ENDCHAR

STARTCHAR Cbb
ENCODING 187
SWIDTH 1000 0
DWIDTH 6 0
BBX 6 12 0 -2
BITMAP
00
A0
A0
50
50
28
50
50
A0
A0
00
00
ENDCHAR

STARTCHAR Cbc
ENCODING 188
SWIDTH 1000 0
DWIDTH 6 0
BBX 6 12 0 -2
BITMAP
00
40
C0
48
F0
20
50
B0
78
10
00
00
ENDCHAR

STARTCHAR Cbd
ENCODING 189
SWIDTH 1000 0
DWIDTH 6 0
BBX 6 12 0 -2
BITMAP
00
40
C0
48
F0
20
70
88
30
78
00
00
ENDCHAR

STARTCHAR Cbe
ENCODING 190
SWIDTH 1000 0
DWIDTH 6 0
BBX 6 12 0 -2
BITMAP
00
C0
20
68
30
E0
50
B0
78
10
00
00
ENDCHAR

STARTCHAR Cbf
ENCODING 191
SWIDTH 1000 0
DWIDTH 6 0
BBX 6 12 0 -2
BITMAP
00
20
20
00
20
20
40
80
88
70
00
00
ENDCHAR

STARTCHAR Cc0
ENCODING 192
SWIDTH 1000 0
DWIDTH 6 0
BBX 6 12 0 -2
BITMAP
00
40
70
00
20
70
50
F8
88
88
00
00
ENDCHAR

STARTCHAR Cc1
ENCODING 193
SWIDTH 1000 0
DWIDTH 6 0
BBX 6 12 0 -2
BITMAP
00
10
70
00
20
70
50
F8
88
88
00
00
ENDCHAR

STARTCHAR Cc2
ENCODING 194
SWIDTH 1000 0
DWIDTH 6 0
BBX 6 12 0 -2
BITMAP
00
20
50
00
20
70
50
F8
88
88
00
00
ENDCHAR

STARTCHAR Cc3
ENCODING 195
SWIDTH 1000 0
DWIDTH 6 0
BBX 6 12 0 -2
BITMAP
00
68
B0
00
20
70
50
F8
88
88
00
00
ENDCHAR

STARTCHAR Cc4
ENCODING 196
SWIDTH 1000 0
DWIDTH 6 0
BBX 6 12 0 -2
BITMAP
00
50
50
00
20
70
50
F8
88
88
00
00
ENDCHAR

STARTCHAR Cc5
ENCODING 197
SWIDTH 1000 0
DWIDTH 6 0
BBX 6 12 0 -2
BITMAP
00
70
50
70
20
70
50
F8
88
88
00
00
ENDCHAR

STARTCHAR Cc6
ENCODING 198
SWIDTH 1000 0
DWIDTH 6 0
BBX 6 12 0 -2
BITMAP
00
00
38
60
A0
B8
E0
A0
B8
00
00
00
ENDCHAR

STARTCHAR Cc7
ENCODING 199
SWIDTH 1000 0
DWIDTH 6 0
BBX 6 12 0 -2
BITMAP
00
00
70
88
80
80
80
88
70
10
70
00
ENDCHAR

STARTCHAR Cc8
ENCODING 200
SWIDTH 1000 0
DWIDTH 6 0
BBX 6 12 0 -2
BITMAP
00
40
70
00
F8
80
F0
80
80
F8
00
00
ENDCHAR

STARTCHAR Cc9
ENCODING 201
SWIDTH 1000 0
DWIDTH 6 0
BBX 6 12 0 -2
BITMAP
00
10
70
00
F8
80
F0
80
80
F8
00
00
ENDCHAR

STARTCHAR Cca
ENCODING 202
SWIDTH 1000 0
DWIDTH 6 0
BBX 6 12 0 -2
BITMAP
00
20
50
00
F8
80
F0
80
80
F8
00
00
ENDCHAR

STARTCHAR Ccb
ENCODING 203
SWIDTH 1000 0
DWIDTH 6 0
BBX 6 12 0 -2
BITMAP
00
50
50
00
F8
80
F0
80
80
F8
00
00
ENDCHAR

STARTCHAR Ccc
ENCODING 204
SWIDTH 1000 0
DWIDTH 6 0
BBX 6 12 0 -2
BITMAP
00
40
70
00
70
20
20
20
20
70
00
00
ENDCHAR

STARTCHAR Ccd
ENCODING 205
SWIDTH 1000 0
DWIDTH 6 0
BBX 6 12 0 -2
BITMAP
00
10
70
00
70
20
20
20
20
70
00
00
ENDCHAR

STARTCHAR Cce
ENCODING 206
SWIDTH 1000 0
DWIDTH 6 0
BBX 6 12 0 -2
BITMAP
00
20
50
00
70
20
20
20
20
70
00
00
ENDCHAR

STARTCHAR Ccf
ENCODING 207
SWIDTH 1000 0
DWIDTH 6 0
BBX 6 12 0 -2
BITMAP
00
50
50
00
70
20
20
20
20
70
00
00
ENDCHAR

STARTCHAR Cd0
ENCODING 208
SWIDTH 1000 0
DWIDTH 6 0
BBX 6 12 0 -2
BITMAP
00
00
F0
48
48
E8
48
48
F0
00
00
00
ENDCHAR

STARTCHAR Cd1
ENCODING 209
SWIDTH 1000 0
DWIDTH 6 0
BBX 6 12 0 -2
BITMAP
00
68
B0
00
88
C8
A8
A8
98
88
00
00
ENDCHAR

STARTCHAR Cd2
ENCODING 210
SWIDTH 1000 0
DWIDTH 6 0
BBX 6 12 0 -2
BITMAP
00
40
70
00
70
88
88
88
88
70
00
00
ENDCHAR

STARTCHAR Cd3
ENCODING 211
SWIDTH 1000 0
DWIDTH 6 0
BBX 6 12 0 -2
BITMAP
00
10
70
00
70
88
88
88
88
70
00
00
ENDCHAR

STARTCHAR Cd4
ENCODING 212
SWIDTH 1000 0
DWIDTH 6 0
BBX 6 12 0 -2
BITMAP
00
20
50
00
70
88
88
88
88
70
00
00
ENDCHAR

STARTCHAR Cd5
ENCODING 213
SWIDTH 1000 0
DWIDTH 6 0
BBX 6 12 0 -2
BITMAP
00
68
B0
00
70
88
88
88
88
70
00
00
ENDCHAR

STARTCHAR Cd6
ENCODING 214
SWIDTH 1000 0
DWIDTH 6 0
BBX 6 12 0 -2
BITMAP
00
50
50
00
70
88
88
88
88
70
00
00
ENDCHAR

STARTCHAR Cd7
ENCODING 215
SWIDTH 1000 0
DWIDTH 6 0
BBX 6 12 0 -2
BITMAP
00
00
00
88
50
20
50
88
00
00
00
00
ENDCHAR

STARTCHAR Cd8
ENCODING 216
SWIDTH 1000 0
DWIDTH 6 0
BBX 6 12 0 -2
BITMAP
00
00
10
70
88
A8
A8
A8
C8
70
40
00
ENDCHAR

STARTCHAR Cd9
ENCODING 217
SWIDTH 1000 0
DWIDTH 6 0
BBX 6 12 0 -2
BITMAP
00
40
70
00
88
88
88
88
88
70
00
00
ENDCHAR

STARTCHAR Cda
ENCODING 218
SWIDTH 1000 0
DWIDTH 6 0
BBX 6 12 0 -2
BITMAP
00
10
70
00
88
88
88
88
88
70
00
00
ENDCHAR

STARTCHAR Cdb
ENCODING 219
SWIDTH 1000 0
DWIDTH 6 0
BBX 6 12 0 -2
BITMAP
00
20
50
00
88
88
88
88
88
70
00
00
ENDCHAR

STARTCHAR Cdc
ENCODING 220
SWIDTH 1000 0
DWIDTH 6 0
BBX 6 12 0 -2
BITMAP
00
50
50
00
88
88
88
88
88
70
00
00
ENDCHAR

STARTCHAR Cdd
ENCODING 221
SWIDTH 1000 0
DWIDTH 6 0
BBX 6 12 0 -2
BITMAP
00
10
70
00
88
88
50
20
20
70
00
00
ENDCHAR

STARTCHAR Cde
ENCODING 222
SWIDTH 1000 0
DWIDTH 6 0
BBX 6 12 0 -2
BITMAP
00
E0
40
70
48
48
48
70
40
E0
00
00
ENDCHAR

STARTCHAR Cdf
ENCODING 223
SWIDTH 1000 0
DWIDTH 6 0
BBX 6 12 0 -2
BITMAP
00
30
48
48
48
90
88
88
88
B0
80
00
ENDCHAR

STARTCHAR Ce0
ENCODING 224
SWIDTH 1000 0
DWIDTH 6 0
BBX 6 12 0 -2
BITMAP
00
40
70
00
60
10
70
90
90
68
00
00
ENDCHAR

STARTCHAR Ce1
ENCODING 225
SWIDTH 1000 0
DWIDTH 6 0
BBX 6 12 0 -2
BITMAP
00
10
70
00
60
10
70
90
90
68
00
00
ENDCHAR

STARTCHAR Ce2
ENCODING 226
SWIDTH 1000 0
DWIDTH 6 0
BBX 6 12 0 -2
BITMAP
00
20
50
00
60
10
70
90
90
68
00
00
ENDCHAR

STARTCHAR Ce3
ENCODING 227
SWIDTH 1000 0
DWIDTH 6 0
BBX 6 12 0 -2
BITMAP
00
68
B0
00
60
10
70
90
90
68
00
00
ENDCHAR

STARTCHAR Ce4
ENCODING 228
SWIDTH 1000 0
DWIDTH 6 0
BBX 6 12 0 -2
BITMAP
00
50
50
00
60
10
70
90
90
68
00
00
ENDCHAR

STARTCHAR Ce5
ENCODING 229
SWIDTH 1000 0
DWIDTH 6 0
BBX 6 12 0 -2
BITMAP
00
20
50
20
60
10
70
90
90
68
00
00
ENDCHAR

STARTCHAR Ce6
ENCODING 230
SWIDTH 1000 0
DWIDTH 6 0
BBX 6 12 0 -2
BITMAP
00
00
00
00
D0
28
78
A0
A8
F8
00
00
ENDCHAR

STARTCHAR Ce7
ENCODING 231
SWIDTH 1000 0
DWIDTH 6 0
BBX 6 12 0 -2
BITMAP
00
00
00
00
70
88
80
88
70
10
70
00
ENDCHAR

STARTCHAR Ce8
ENCODING 232
SWIDTH 1000 0
DWIDTH 6 0
BBX 6 12 0 -2
BITMAP
00
40
70
00
60
90
F0
80
90
60
00
00
ENDCHAR

STARTCHAR Ce9
ENCODING 233
SWIDTH 1000 0
DWIDTH 6 0
BBX 6 12 0 -2
BITMAP
00
10
70
00
60
90
F0
80
90
60
00
00
ENDCHAR

STARTCHAR Cea
ENCODING 234
SWIDTH 1000 0
DWIDTH 6 0
BBX 6 12 0 -2
BITMAP
00
20
50
00
60
90
F0
80
90
60
00
00
ENDCHAR

STARTCHAR Ceb
ENCODING 235
SWIDTH 1000 0
DWIDTH 6 0
BBX 6 12 0 -2
BITMAP
00
50
50
00
60
90
F0
80
90
60
00
00
ENDCHAR

STARTCHAR Cec
ENCODING 236
SWIDTH 1000 0
DWIDTH 6 0
BBX 6 12 0 -2
BITMAP
00
40
70
00
60
20
20
20
20
70
00
00
ENDCHAR

STARTCHAR Ced
ENCODING 237
SWIDTH 1000 0
DWIDTH 6 0
BBX 6 12 0 -2
BITMAP
00
10
70
00
60
20
20
20
20
70
00
00
ENDCHAR

STARTCHAR Cee
ENCODING 238
SWIDTH 1000 0
DWIDTH 6 0
BBX 6 12 0 -2
BITMAP
00
20
50
00
60
20
20
20
20
70
00
00
ENDCHAR

STARTCHAR Cef
ENCODING 239
SWIDTH 1000 0
DWIDTH 6 0
BBX 6 12 0 -2
BITMAP
00
50
50
00
60
20
20
20
20
70
00
00
ENDCHAR

STARTCHAR Cf0
ENCODING 240
SWIDTH 1000 0
DWIDTH 6 0
BBX 6 12 0 -2
BITMAP
00
D0
20
50
08
78
88
88
88
70
00
00
ENDCHAR

STARTCHAR Cf1
ENCODING 241
SWIDTH 1000 0
DWIDTH 6 0
BBX 6 12 0 -2
BITMAP
00
68
B0
00
B0
C8
88
88
88
88
00
00
ENDCHAR

STARTCHAR Cf2
ENCODING 242
SWIDTH 1000 0
DWIDTH 6 0
BBX 6 12 0 -2
BITMAP
00
40
70
00
70
88
88
88
88
70
00
00
ENDCHAR

STARTCHAR Cf3
ENCODING 243
SWIDTH 1000 0
DWIDTH 6 0
BBX 6 12 0 -2
BITMAP
00
10
70
00
70
88
88
88
88
70
00
00
ENDCHAR

STARTCHAR Cf4
ENCODING 244
SWIDTH 1000 0
DWIDTH 6 0
BBX 6 12 0 -2
BITMAP
00
20
50
00
70
88
88
88
88
70
00
00
ENDCHAR

STARTCHAR Cf5
ENCODING 245
SWIDTH 1000 0
DWIDTH 6 0
BBX 6 12 0 -2
BITMAP
00
68
B0
00
70
88
88
88
88
70
00
00
ENDCHAR

STARTCHAR Cf6
ENCODING 246
SWIDTH 1000 0
DWIDTH 6 0
BBX 6 12 0 -2
BITMAP
00
50
50
00
70
88
88
88
88
70
00
00
ENDCHAR

STARTCHAR Cf7
ENCODING 247
SWIDTH 1000 0
DWIDTH 6 0
BBX 6 12 0 -2
BITMAP
00
00
60
60
00
F0
00
60
60
00
00
00
ENDCHAR

STARTCHAR Cf8
ENCODING 248
SWIDTH 1000 0
DWIDTH 6 0
BBX 6 12 0 -2
BITMAP
00
00
00
10
70
98
A8
A8
C8
70
40
00
ENDCHAR

STARTCHAR Cf9
ENCODING 249
SWIDTH 1000 0
DWIDTH 6 0
BBX 6 12 0 -2
BITMAP
00
40
70
00
90
90
90
90
90
78
00
00
ENDCHAR

STARTCHAR Cfa
ENCODING 250
SWIDTH 1000 0
DWIDTH 6 0
BBX 6 12 0 -2
BITMAP
00
10
70
00
90
90
90
90
90
78
00
00
ENDCHAR

STARTCHAR Cfb
ENCODING 251
SWIDTH 1000 0
DWIDTH 6 0
BBX 6 12 0 -2
BITMAP
00
20
50
00
90
90
90
90
90
78
00
00
ENDCHAR

STARTCHAR Cfc
ENCODING 252
SWIDTH 1000 0
DWIDTH 6 0
BBX 6 12 0 -2
BITMAP
00
50
50
00
90
90
90
90
90
78
00
00
ENDCHAR

STARTCHAR Cfd
ENCODING 253
SWIDTH 1000 0
DWIDTH 6 0
BBX 6 12 0 -2
BITMAP
00
10
70
00
88
88
50
50
20
20
C0
00
ENDCHAR

STARTCHAR Cfe
ENCODING 254
SWIDTH 1000 0
DWIDTH 6 0
BBX 6 12 0 -2
BITMAP
00
00
00
C0
70
48
48
48
70
40
E0
00
ENDCHAR

STARTCHAR Cff
ENCODING 255
SWIDTH 1000 0
DWIDTH 6 0
BBX 6 12 0 -2
BITMAP
00
50
50
00
88
88
50
50
20
20
C0
00
ENDCHAR
ENDFONT
